# xmcd CD database file
#
# Track frame offsets:
#	150
#	14320
#	33782
#	46865
#	72207
#	87545
#	105047
#	118892
#	134880
#	158035
#
# Disc length: 2392 seconds
#
# Revision: 1
# Processed by: cddbd v1.5.1PL0 Copyright (c) Steve Scherf et al.
# Submitted via: CDex 1.51
#
DISCID=7c09560a
DTITLE=David Barrett and John Garcia - Serious Fun
DYEAR=1919
DGENRE=Blues
TTITLE0=Serious Fun
TTITLE1=I love You More Everyday
TTITLE2=Lick Train
TTITLE3=Pretty Girls Everywhere
TTITLE4=Quiet World
TTITLE5=Chicago Style
TTITLE6=Minor Attitude
TTITLE7=Dont Fight It
TTITLE8=A Real Romance
TTITLE9=Feelin Good
EXTD=YEAR: 1919
EXTT0=
EXTT1=
EXTT2=
EXTT3=
EXTT4=
EXTT5=
EXTT6=
EXTT7=
EXTT8=
EXTT9=
PLAYORDER=
